<?xml version="1.0" encoding="utf-8"?>
<!-- Generator: Adobe Illustrator 22.1.0, SVG Export Plug-In . SVG Version: 6.00 Build 0)  -->
<svg version="1.1" id="图层_1" xmlns="http://www.w3.org/2000/svg" xmlns:xlink="http://www.w3.org/1999/xlink" x="0px" y="0px"
	 viewBox="0 0 14 18" style="enable-background:new 0 0 14 18;" xml:space="preserve">
<style type="text/css">
	.st0{fill:#F8B500;}
</style>
<title>地点</title>
<desc>Created with Sketch.</desc>
<g id="Page-1">
	<g id="_x30_5-联系我们" transform="translate(-137.000000, -677.000000)">
		<path id="地点" class="st0" d="M150,686.9l-5.5,7.9c-0.1,0.2-0.3,0.2-0.5,0.2s-0.4-0.1-0.5-0.2l-5.5-7.9c-0.7-1-1-2.2-1-3.4
			c0-3.6,3.1-6.5,7-6.5c3.9,0,7,2.9,7,6.5C151,684.7,150.7,685.9,150,686.9z M144,678.4c-3.1,0-5.6,2.3-5.6,5.2
			c0,0.9,0.3,1.9,0.8,2.7l4.8,6.9l4.8-6.9c0.5-0.8,0.8-1.7,0.8-2.6C149.6,680.8,147.1,678.4,144,678.4L144,678.4z M144,686.6
			c-1.8,0-3.3-1.4-3.3-3.1c0-1.7,1.5-3.1,3.3-3.1c1.8,0,3.3,1.4,3.3,3.1C147.3,685.2,145.8,686.6,144,686.6z M144,681.7
			c-1.1,0-2,0.8-2,1.8c0,1,0.9,1.8,2,1.8s2-0.8,2-1.8C146,682.5,145.1,681.7,144,681.7z"/>
	</g>
</g>
</svg>
