<?xml version="1.0" encoding="utf-8"?>
<!-- Generator: Adobe Illustrator 22.1.0, SVG Export Plug-In . SVG Version: 6.00 Build 0)  -->
<svg version="1.1" id="图层_1" xmlns="http://www.w3.org/2000/svg" xmlns:xlink="http://www.w3.org/1999/xlink" x="0px" y="0px"
	 viewBox="0 0 13 12" style="enable-background:new 0 0 13 12;" xml:space="preserve">
<style type="text/css">
	.st0{fill:#F8B500;}
</style>
<title>用户 copy 3</title>
<desc>Created with Sketch.</desc>
<g id="Page-1">
	<g id="_x30_5-联系我们" transform="translate(-137.000000, -865.000000)">
		<path id="用户-copy-3" class="st0" d="M149.6,867.4c-0.1-0.2-0.3-0.2-0.5-0.1v-0.8c0-0.8-0.6-1.5-1.4-1.5h-8.4
			c-0.8,0-1.4,0.7-1.4,1.5v0.8c-0.2-0.1-0.4,0-0.5,0.1c-0.3,0.2-0.4,0.6-0.4,1v7c0,0.8,0.6,1.5,1.4,1.5h10.2c0.8,0,1.4-0.7,1.4-1.5
			v-7C150,868.1,149.9,867.7,149.6,867.4z M142.5,873.6c0.6,0.6,1.4,0.6,1.9,0l0.8-0.9l3.2,3.2h-9.8l3.1-3.3L142.5,873.6z M146,872
			l3.1-3.3v6.6L146,872z M139.3,866h8.4c0.3,0,0.5,0.2,0.5,0.5v1.8l-4.3,4.7c-0.2,0.2-0.5,0.2-0.6,0l-1.5-1.6l-2.8-3v-1.8
			C138.9,866.2,139,866,139.3,866z M141,872l-3.1,3.3v-6.6L141,872z"/>
	</g>
</g>
</svg>
