<?xml version="1.0" encoding="utf-8"?>
<!-- Generator: Adobe Illustrator 22.1.0, SVG Export Plug-In . SVG Version: 6.00 Build 0)  -->
<svg version="1.1" id="图层_1" xmlns="http://www.w3.org/2000/svg" xmlns:xlink="http://www.w3.org/1999/xlink" x="0px" y="0px"
	 viewBox="0 0 15 15" style="enable-background:new 0 0 15 15;" xml:space="preserve">
<style type="text/css">
	.st0{fill:#F8B500;}
</style>
<title>电话</title>
<desc>Created with Sketch.</desc>
<g id="Page-1">
	<g id="_x30_5-联系我们" transform="translate(-138.000000, -784.000000)">
		<path id="电话" class="st0" d="M149.8,794c-0.2-0.2-0.5-0.2-0.7,0.1l-1.2,1.2c-0.2,0.2-0.4,0.2-0.6,0.1
			c-1.2-0.6-2.3-1.5-3.2-2.4c-0.9-0.9-1.7-2-2.4-3.2c-0.1-0.2-0.1-0.5,0.1-0.6l1.2-1.2c0.2-0.2,0.2-0.5,0.1-0.7l-1.7-2.1
			c0,0,0-0.1-0.1-0.1c-0.2-0.2-0.5-0.2-0.8,0l-1.5,1.5c-0.7,0.7,1.1,4.1,4.2,7.2c3.1,3.2,6.5,4.9,7.2,4.2l1.5-1.5l0.1-0.1
			c0.2-0.2,0.2-0.6-0.1-0.8L149.8,794z M148.2,793.3c0.6-0.6,1.5-0.6,2.1-0.1l2.1,1.6c0.7,0.5,0.8,1.5,0.3,2.2
			c-0.1,0.1-0.1,0.1-0.1,0.1l-1.4,1.4c-1.4,1.4-5.1-0.6-8.6-4.1c-3.5-3.5-5.4-7.2-4.1-8.5l1.4-1.4c0.6-0.6,1.6-0.6,2.2,0l0.1,0.1
			l1.6,2.1c0.5,0.6,0.5,1.5-0.1,2.1l-0.9,0.9c0.6,0.9,1.2,1.8,2,2.5c0.7,0.7,1.6,1.4,2.5,2L148.2,793.3z M146.4,785.8
			c-0.3,0-0.5-0.2-0.5-0.5s0.2-0.5,0.5-0.5c2.6,0,4.8,2.2,4.8,4.8c0,0.3-0.2,0.5-0.5,0.5s-0.5-0.2-0.5-0.5
			C150.3,787.6,148.5,785.8,146.4,785.8z M146.4,787.7c-0.3,0-0.5-0.2-0.5-0.5c0-0.3,0.2-0.5,0.5-0.5c1.7,0,3,1.4,3,3
			c0,0.3-0.2,0.5-0.5,0.5s-0.5-0.2-0.5-0.5C148.5,788.6,147.6,787.7,146.4,787.7z"/>
	</g>
</g>
</svg>
